<?xml version="1.0" standalone="no"?>
<!DOCTYPE svg PUBLIC "-//W3C//DTD SVG 20010904//EN"
 "http://www.w3.org/TR/2001/REC-SVG-20010904/DTD/svg10.dtd">
<svg version="1.0" xmlns="http://www.w3.org/2000/svg"
 width="626.000000pt" height="626.000000pt" viewBox="0 0 626.000000 626.000000"
 preserveAspectRatio="xMidYMid meet">

<g transform="translate(0.000000,626.000000) scale(0.100000,-0.100000)"
fill="#000000" stroke="none">
<path d="M3473 6146 c-18 -15 -47 -57 -65 -94 -28 -57 -33 -77 -32 -138 0 -50
6 -82 21 -112 11 -23 18 -42 14 -42 -3 0 -28 8 -56 17 -38 12 -92 17 -220 18
-119 1 -195 7 -255 20 -112 23 -229 16 -375 -24 -143 -40 -232 -48 -309 -28
l-58 16 22 -24 c13 -13 71 -57 131 -97 60 -40 108 -75 108 -78 0 -3 -46 -20
-103 -39 -95 -32 -109 -34 -186 -28 l-83 7 30 -28 c16 -15 42 -37 59 -48 l29
-22 -54 9 c-71 11 -113 25 -195 66 -71 36 -161 111 -171 144 -4 10 -13 19 -22
19 -14 0 -15 -11 -10 -74 11 -125 64 -246 151 -342 l44 -50 -46 -13 c-26 -6
-73 -28 -105 -47 -88 -54 -177 -56 -295 -7 -11 4 -12 1 -4 -14 6 -10 18 -47
27 -83 19 -75 53 -144 92 -191 15 -18 22 -29 14 -25 -9 6 -12 5 -9 -5 2 -8 26
-26 52 -40 l47 -26 -35 -30 c-19 -17 -50 -36 -70 -43 l-35 -11 35 -31 c19 -17
62 -45 97 -64 36 -20 54 -34 42 -34 -33 0 -125 28 -177 53 -48 24 -48 24 -42
3 26 -86 156 -237 236 -274 21 -9 38 -19 38 -23 0 -3 -19 -15 -42 -27 l-43
-23 65 5 c54 4 188 44 272 80 14 6 18 0 23 -31 4 -21 29 -135 55 -253 26 -118
47 -216 46 -217 -1 -2 -16 3 -33 9 -26 10 -35 9 -57 -6 -54 -35 -97 -142 -98
-239 0 -94 78 -256 176 -364 54 -59 83 -78 139 -88 29 -6 38 -13 43 -34 36
-162 54 -208 109 -276 45 -55 47 -59 55 -148 5 -51 12 -167 16 -259 8 -193 12
-180 -93 -289 -48 -50 -69 -66 -84 -62 -13 4 -49 -12 -102 -44 -76 -47 -141
-78 -436 -213 -139 -63 -549 -245 -645 -286 -88 -37 -117 -67 -170 -173 -45
-89 -121 -309 -111 -319 46 -46 302 -211 540 -348 279 -160 435 -234 630 -297
236 -77 527 -137 815 -168 168 -18 591 -16 780 5 363 40 987 176 1290 281 208
72 432 198 603 339 l85 69 -53 156 c-106 316 -146 367 -375 465 -74 32 -283
125 -465 206 -472 211 -699 310 -713 310 -7 0 -21 -6 -32 -12 -17 -11 -25 -7
-65 32 -25 25 -60 66 -76 92 l-30 47 7 308 7 307 29 46 c28 44 64 148 90 260
13 54 14 55 56 62 24 4 58 16 76 27 59 37 155 165 209 279 27 58 32 78 31 147
0 56 -7 100 -23 147 -35 104 -77 147 -125 128 -31 -11 -31 -9 -11 69 7 31 37
178 65 326 41 215 49 274 40 289 -10 16 -5 25 39 68 57 55 93 111 123 190 14
37 15 48 5 40 -12 -10 -13 -4 -9 40 4 41 2 50 -9 46 -11 -4 -14 16 -15 111 0
78 -6 134 -17 172 -18 59 -77 158 -106 176 -16 10 -18 6 -19 -32 -1 -23 -8
-60 -16 -81 -34 -94 -56 -120 -56 -66 0 40 -65 158 -127 232 -50 58 -53 60
-53 34 0 -26 -2 -25 -31 20 -18 26 -66 77 -108 114 -218 192 -273 274 -308
461 l-8 44 -32 -27z m12 -36 c-3 -5 -2 -10 3 -10 5 0 14 -30 21 -67 23 -127
97 -230 263 -370 69 -59 178 -184 178 -205 0 -4 -28 23 -62 60 -76 82 -140
137 -227 197 -88 60 -91 63 -134 119 -20 27 -37 61 -37 75 0 20 -2 23 -10 11
-5 -8 -10 -10 -10 -4 0 5 3 14 8 20 4 5 5 45 2 89 l-5 80 -23 -50 c-13 -27
-27 -69 -32 -93 -8 -43 -20 -68 -20 -41 0 38 33 137 56 166 23 30 44 46 29 23z
m-605 -316 c46 -8 99 -22 119 -30 20 -7 86 -23 146 -34 71 -13 89 -18 50 -15
-33 3 -143 19 -245 36 -201 33 -204 33 -410 -5 -180 -33 -268 -40 -303 -24
-25 12 -16 13 75 13 83 0 127 7 228 32 188 49 216 51 340 27z m435 -41 c80
-15 160 -42 151 -50 -2 -2 -21 0 -43 6 -21 5 -116 20 -210 32 -95 12 -173 24
-173 28 0 11 194 0 275 -16z m-1423 -291 c95 -45 163 -62 247 -62 59 -1 72 -3
58 -11 -55 -32 -233 -18 -321 25 -65 32 -128 94 -149 147 l-16 40 59 -55 c33
-30 88 -68 122 -84z m863 87 c51 -9 271 -88 263 -94 -2 -1 -55 9 -118 22 -90
20 -148 25 -265 26 -146 2 -152 1 -240 -30 -92 -34 -120 -40 -110 -23 3 5 -7
12 -22 15 -66 15 -68 22 -8 29 33 4 107 13 165 21 l105 14 -105 -3 c-111 -3
-110 3 5 30 65 15 221 11 330 -7z m1242 -81 c-3 -8 -6 -5 -6 6 -1 11 2 17 5
13 3 -3 4 -12 1 -19z m78 -90 c20 -45 29 -82 31 -133 3 -66 3 -67 -5 -19 -10
62 -37 145 -64 199 -14 29 -16 36 -5 27 9 -7 28 -40 43 -74z m152 15 c-3 -10
-5 -4 -5 12 0 17 2 24 5 18 2 -7 2 -21 0 -30z m94 -153 c17 -82 6 -262 -20
-330 -15 -39 -19 -46 -16 -22 3 17 7 47 10 65 l5 32 -16 -34 c-26 -58 -26 -26
0 38 21 48 26 75 24 133 l-1 73 -6 -70 c-5 -51 -15 -87 -39 -132 -36 -69 -52
-85 -26 -25 53 122 65 286 29 407 -3 11 6 -2 20 -30 13 -27 30 -75 36 -105z
m-2226 -69 c35 -6 27 -8 -55 -14 -86 -7 -203 -25 -270 -42 -53 -14 5 15 70 34
95 29 181 36 255 22z m-510 -111 l50 -8 -43 -1 c-23 0 -58 6 -77 13 -41 18
-48 31 -7 15 15 -6 50 -15 77 -19z m2742 -187 c-8 -15 -28 -39 -43 -53 -23
-21 -21 -16 12 31 41 60 56 70 31 22z m-2643 -22 c-5 -5 -93 29 -99 38 -2 5
20 -1 49 -13 30 -12 52 -23 50 -25z m2675 -3 c-17 -32 -106 -124 -121 -126 -7
-1 -26 -4 -43 -7 -24 -6 -22 -2 15 16 25 13 70 49 100 80 64 66 65 66 49 37z
m-2632 -4 c-3 -3 -12 -4 -19 -1 -8 3 -5 6 6 6 11 1 17 -2 13 -5z m56 -11 c-7
-2 -19 -2 -25 0 -7 3 -2 5 12 5 14 0 19 -2 13 -5z m-73 -97 c0 -2 -12 -11 -27
-20 l-28 -17 24 20 c23 21 31 25 31 17z m2486 -187 c-3 -33 -11 -68 -16 -77
-8 -12 -9 -5 -3 28 4 25 7 60 7 78 0 17 4 32 9 32 6 0 7 -24 3 -61z m-2646 -9
c22 -11 66 -27 98 -34 l57 -14 -50 -1 c-53 -1 -120 24 -144 52 -18 22 -9 21
39 -3z m1895 -10 c110 -14 260 -47 297 -66 37 -19 101 -153 173 -364 l57 -165
-6 -145 c-3 -80 -8 -170 -10 -200 -4 -39 -1 -30 10 29 8 48 26 106 42 135 31
59 111 146 133 146 45 0 99 -119 106 -235 4 -59 1 -80 -19 -131 -54 -132 -191
-304 -242 -304 -61 0 -63 6 -49 132 19 166 11 174 -15 13 -28 -168 -61 -305
-74 -305 -5 0 -6 -5 -3 -10 8 -13 -4 -52 -14 -45 -5 2 -16 -13 -26 -34 -9 -22
-32 -54 -51 -72 -18 -18 -30 -37 -27 -42 3 -6 1 -7 -4 -4 -13 8 -65 -31 -58
-43 3 -5 0 -12 -6 -16 -8 -4 -9 -3 -5 4 14 23 -5 12 -69 -40 -66 -52 -77 -65
-49 -54 8 3 12 2 9 -4 -3 -6 -15 -10 -25 -10 -21 0 -206 -128 -203 -139 1 -4
-4 -8 -10 -8 -7 0 -38 -16 -69 -36 -75 -48 -123 -61 -191 -53 -59 8 -112 39
-304 180 -88 65 -126 79 -65 25 43 -39 31 -37 -19 3 -29 23 -36 34 -27 41 9 6
8 7 -4 3 -18 -5 -156 102 -220 170 -27 29 -93 207 -84 228 2 6 5 2 5 -8 1 -11
3 -17 6 -14 9 8 -6 59 -15 53 -15 -9 -80 319 -111 560 -25 196 -23 337 4 378
9 14 14 34 11 44 -4 12 -3 14 3 6 6 -8 23 8 57 54 27 36 76 94 109 129 52 57
67 66 128 84 137 41 412 90 426 76 3 -3 -1 -14 -9 -23 -20 -22 -78 -138 -112
-223 l-26 -65 72 73 c70 71 222 185 359 271 48 30 72 40 94 36 17 -2 71 -9
120 -15z m721 -149 c-6 -33 -14 -63 -18 -67 -13 -13 -9 85 4 106 21 34 25 23
14 -39z m-1868 -41 c-7 -10 -14 -17 -17 -15 -4 4 18 35 25 35 2 0 -1 -9 -8
-20z m1802 -296 c-17 -76 -36 -143 -41 -149 -7 -7 -9 -2 -5 15 3 14 17 77 31
141 26 124 37 159 42 142 2 -5 -10 -73 -27 -149z m-1975 -262 l50 -27 32 -160
c18 -88 41 -213 51 -277 l19 -118 -24 0 c-42 0 -87 26 -134 79 -26 28 -44 51
-40 51 3 0 1 4 -5 8 -19 13 -103 189 -110 230 -12 75 57 243 99 242 7 0 35
-13 62 -28z m1667 -874 c-17 -24 -47 -59 -69 -78 l-38 -35 33 36 c18 19 29 39
25 43 -5 4 -1 6 7 4 8 -1 14 3 13 10 -2 6 1 12 7 12 5 0 17 17 26 38 9 20 18
32 21 25 2 -7 -9 -32 -25 -55z m-24 -783 c11 -15 12 -16 8 -2 -3 9 -4 17 -2
17 1 0 37 -35 79 -77 l77 -76 -31 -56 c-133 -237 -332 -395 -562 -446 -107
-24 -275 -17 -367 14 -103 36 -226 96 -319 158 -108 71 -254 217 -304 303
l-37 65 39 33 c22 18 67 67 101 108 54 68 60 79 55 112 -2 20 -7 109 -10 197
-5 173 -8 167 42 95 119 -166 233 -273 363 -341 63 -33 69 -34 180 -34 105 0
120 2 170 27 62 31 186 138 283 244 95 105 180 221 171 235 -4 7 -3 9 3 6 6
-4 15 5 22 19 16 35 14 48 -5 30 -8 -9 -13 -20 -9 -26 3 -6 -1 -7 -10 -4 -14
6 -12 11 12 36 l28 29 5 -323 c4 -245 8 -328 18 -343z m-158 602 c-90 -70
-140 -107 -140 -103 0 6 142 116 149 116 3 0 -1 -6 -9 -13z m-158 -119 c-6 -7
-25 -22 -44 -32 -36 -20 -30 -12 16 22 32 25 44 28 28 10z m-172 -112 c0 -2
-7 -7 -16 -10 -8 -3 -12 -2 -9 4 6 10 25 14 25 6z m-85 -36 c-11 -5 -29 -9
-40 -9 l-20 0 20 9 c11 5 29 9 40 9 l20 0 -20 -9z m-168 -6 c-3 -3 -12 -4 -19
-1 -8 3 -5 6 6 6 11 1 17 -2 13 -5z m-731 -445 c14 -16 15 -21 4 -17 -8 3 -36
-6 -61 -19 -55 -27 -69 -29 -69 -7 0 10 5 14 16 10 8 -3 12 -2 9 4 -5 8 57 48
76 50 3 0 14 -10 25 -21z m1704 -4 c0 -12 -19 -12 -23 0 -4 9 -1 12 9 8 7 -3
14 -7 14 -8z m-20 -37 c0 -4 -4 -8 -9 -8 -6 0 -12 4 -15 8 -3 5 1 9 9 9 8 0
15 -4 15 -9z m40 -18 c0 -5 -2 -10 -4 -10 -3 0 -8 5 -11 10 -3 6 -1 10 4 10 6
0 11 -4 11 -10z m105 2 c6 -4 8 -22 5 -39 -4 -26 -8 -31 -20 -23 -10 6 -11 10
-2 10 6 0 12 11 12 24 0 13 -6 27 -12 29 -7 3 -8 6 -3 6 6 0 15 -3 20 -7z
m-2026 -48 c-57 -60 -164 -143 -205 -160 -22 -9 -60 -16 -86 -15 -38 2 -48 -1
-48 -14 0 -8 6 -15 13 -15 14 0 -55 -33 -128 -60 -35 -14 -44 -15 -31 -5 11 8
14 15 7 15 -7 0 -10 4 -7 8 2 4 1 14 -3 20 -6 11 -14 10 -37 0 -16 -7 -35 -18
-42 -25 -7 -7 -20 -13 -28 -13 -21 0 -88 -29 -82 -35 3 -3 16 -2 29 3 56 21
79 23 73 7 -5 -13 -2 -14 21 -5 14 5 32 10 38 10 7 -1 -22 -14 -63 -30 -78
-31 -97 -36 -67 -19 17 10 15 29 -4 29 -6 0 -7 -4 -4 -10 4 -6 -11 -10 -39
-10 -38 0 -45 -3 -43 -19 1 -16 5 -17 25 -10 30 11 52 11 32 0 -22 -13 -279
-101 -293 -101 -7 0 -6 4 3 10 25 15 3 23 -32 11 -65 -23 -11 8 82 47 52 22
171 74 264 116 94 42 176 74 183 71 8 -2 11 0 8 5 -3 6 -4 10 -1 10 2 0 13 3
23 6 13 4 14 3 5 -4 -11 -7 -9 -10 7 -15 12 -3 21 -1 21 4 0 5 5 9 12 9 6 0
26 12 45 26 40 31 99 31 96 0 -1 -13 2 -15 10 -7 6 6 19 11 28 11 9 0 19 7 23
15 5 15 -28 20 -104 18 -26 -1 -6 10 121 66 29 14 86 39 124 57 90 42 96 42
54 -2z m1967 20 c18 -14 18 -14 -6 -3 -31 14 -36 19 -24 19 6 0 19 -7 30 -16z
m176 -35 c-1 -6 5 -8 15 -5 10 3 25 1 33 -5 12 -8 10 -9 -7 -4 -12 3 -24 1
-28 -5 -4 -6 -3 -9 2 -8 4 1 21 -5 37 -13 34 -19 20 -34 -18 -19 -35 13 -33 4
4 -15 20 -10 30 -12 30 -4 0 16 66 4 133 -25 20 -8 37 -11 37 -5 0 5 -5 9 -11
9 -15 0 -161 71 -156 76 4 4 125 -48 194 -84 36 -18 38 -30 1 -12 -22 10 -22
10 -4 -4 10 -8 24 -17 30 -19 15 -6 6 -13 -24 -21 -14 -3 -19 -3 -12 0 10 5
10 9 1 20 -13 16 -33 19 -24 4 4 -6 -1 -7 -11 -3 -13 5 -16 3 -11 -10 6 -16 4
-16 -31 -1 -20 9 -43 18 -49 21 -7 3 -13 9 -13 15 0 5 -4 6 -10 3 -5 -3 -10
-1 -10 4 0 6 -7 11 -15 11 -8 0 -48 17 -90 37 -73 37 -75 38 -75 75 l0 37 43
-19 c23 -11 41 -25 39 -31z m-2482 -123 c0 -2 -9 -6 -20 -9 -11 -3 -18 -1 -14
4 5 9 34 13 34 5z m-50 -20 c0 -2 -7 -7 -16 -10 -8 -3 -12 -2 -9 4 6 10 25 14
25 6z m2916 -17 c49 -21 89 -39 221 -99 64 -29 71 -35 60 -49 -11 -14 -10 -14
5 -2 15 11 26 10 75 -9 32 -13 63 -28 68 -33 7 -7 3 -7 -10 -2 -43 16 -60 16
-32 0 15 -9 40 -14 55 -13 18 2 26 -1 24 -10 -2 -10 4 -11 19 -7 15 5 19 4 15
-4 -9 -13 15 -24 58 -25 25 -1 30 -5 28 -21 -6 -33 -18 -38 -51 -20 -18 9 -40
13 -51 10 -10 -3 -21 -1 -25 5 -3 5 -14 10 -23 10 -11 -1 -8 -6 11 -16 15 -8
33 -12 39 -8 7 5 8 3 3 -6 -6 -10 -3 -12 13 -8 13 4 20 2 16 -3 -3 -5 -2 -8 3
-7 4 1 18 -1 31 -6 28 -10 29 -30 0 -21 -20 7 -211 94 -408 187 -52 25 -133
62 -179 84 -51 23 -77 40 -66 42 10 2 20 0 24 -5 8 -11 67 -43 80 -43 6 0 11
11 11 25 0 19 -10 31 -35 46 -31 19 -42 29 -31 29 2 0 25 -9 52 -21z m632
-276 c-2 -5 -12 -25 -22 -47 -9 -21 -19 -36 -22 -33 -8 7 7 57 17 57 5 0 8 3
8 8 -3 15 1 22 12 22 6 0 9 -3 7 -7z m5 -48 c-3 -9 -8 -14 -10 -11 -3 3 -2 9
2 15 9 16 15 13 8 -4z m-4327 -197 c-13 -47 -27 -91 -31 -97 -3 -7 -9 -28 -11
-48 -6 -44 -10 -50 -17 -24 -4 19 71 267 79 259 2 -3 -7 -43 -20 -90z m4507
-40 c37 -48 110 -263 93 -277 -9 -8 -22 16 -51 97 -21 59 -53 141 -72 182 -32
73 -30 73 30 -2z"/>
<path d="M3428 4151 c-71 -4 -122 -11 -130 -19 -18 -18 -32 -14 -17 6 7 9 -4
1 -24 -17 -20 -19 -37 -36 -37 -37 0 -2 9 -1 20 1 19 4 19 3 4 -21 l-16 -24
247 5 c136 3 250 7 254 10 4 2 36 -9 70 -25 35 -17 65 -30 68 -30 15 0 -88
108 -126 132 -50 31 -63 32 -313 19z"/>
<path d="M2550 4111 c-85 -5 -111 -10 -135 -27 -41 -30 -139 -134 -132 -141 4
-3 33 9 66 26 58 30 65 31 188 32 70 0 169 4 218 9 l90 7 38 -40 c21 -22 50
-66 64 -98 15 -32 28 -57 30 -55 7 6 -30 83 -68 142 -22 34 -42 72 -44 84 -2
13 -14 33 -25 45 -17 18 -31 21 -103 22 -45 0 -129 -3 -187 -6z m286 -33 l29
-33 -32 29 c-31 28 -38 36 -30 36 2 0 16 -15 33 -32z"/>
<path d="M3425 3977 c-43 -17 -69 -37 -90 -72 -18 -29 -18 -29 21 6 50 47 76
60 138 69 l51 8 -45 0 c-25 0 -59 -5 -75 -11z"/>
<path d="M2568 3938 c-26 -11 -45 -24 -42 -29 3 -5 0 -9 -7 -9 -17 0 -149
-102 -149 -115 0 -6 20 -31 45 -55 50 -49 55 -48 25 4 l-21 34 23 22 c23 22
77 53 123 70 l24 9 -19 -32 c-40 -65 -12 -147 56 -166 95 -26 171 46 145 137
-5 17 -6 32 -2 32 9 0 78 -74 99 -106 7 -10 3 1 -9 24 -30 63 -94 128 -144
148 -31 11 -64 15 -110 12 -61 -4 -64 -3 -39 10 42 22 124 26 167 9 44 -19 49
-14 7 8 -41 21 -116 18 -172 -7z m58 -129 c9 -16 -20 -41 -39 -33 -17 6 -22
25 -10 37 10 11 41 8 49 -4z"/>
<path d="M3447 3935 c-62 -23 -111 -69 -146 -137 -17 -35 -24 -52 -14 -38 23
33 79 87 103 100 18 9 18 8 8 -20 -15 -46 -2 -95 34 -125 28 -24 39 -27 82
-22 83 8 123 73 94 155 -16 42 -15 43 6 36 40 -12 136 -67 136 -78 0 -6 -9
-25 -20 -43 -13 -23 -15 -30 -5 -27 12 5 50 49 68 80 7 12 -107 93 -168 119
-46 18 -127 18 -178 0z m18 -114 c0 -8 -7 -19 -17 -24 -20 -13 -50 7 -41 29 7
19 58 14 58 -5z"/>
<path d="M4092 3745 c-42 -48 -75 -110 -85 -160 -5 -26 -4 -25 10 8 9 20 18
37 22 37 13 0 51 -81 51 -109 0 -39 -59 -116 -87 -115 -13 0 -19 -4 -16 -13 3
-7 17 -13 32 -13 19 0 44 17 91 65 l65 65 5 88 c6 83 6 86 18 52 l12 -35 -5
48 c-5 55 -39 127 -59 127 -8 0 -32 -20 -54 -45z m-22 -85 c-6 -12 -14 -19
-17 -17 -2 3 1 15 7 27 6 12 14 19 17 17 2 -3 -1 -15 -7 -27z"/>
<path d="M2976 3380 c-30 -9 -86 -57 -86 -73 0 -5 11 5 25 22 19 21 41 33 81
42 50 11 56 11 72 -6 16 -18 16 -18 -1 -5 -16 12 -20 12 -28 -1 -5 -8 -7 -22
-5 -31 2 -10 -1 -15 -10 -11 -7 2 -10 11 -7 19 4 10 -1 13 -18 10 -13 -3 -28
-5 -34 -5 -5 -1 -3 -6 5 -11 11 -7 7 -10 -19 -10 -19 0 -31 -3 -28 -7 4 -3 -1
-11 -9 -18 -14 -10 -9 -16 34 -44 28 -17 66 -35 86 -38 38 -6 100 13 90 28 -3
5 1 7 8 4 17 -7 84 49 91 75 12 46 -161 88 -247 60z m179 -20 c7 -12 -22 -12
-50 0 -17 7 -15 9 12 9 17 1 35 -3 38 -9z m51 -18 c6 -4 9 -14 5 -22 -5 -14
-10 -13 -41 3 -22 11 -27 16 -12 13 12 -2 22 0 22 5 0 11 11 11 26 1z m-99 -8
c-3 -3 -12 -4 -19 -1 -8 3 -5 6 6 6 11 1 17 -2 13 -5z m-17 -56 c0 -10 -7 -18
-16 -18 -10 0 -12 4 -7 13 4 6 6 21 5 32 -2 17 -1 17 7 5 6 -8 11 -23 11 -32z
m-46 15 c17 7 21 -9 7 -31 -6 -10 -12 -7 -24 12 -10 14 -17 29 -17 33 0 4 4 2
9 -6 5 -8 16 -11 25 -8z m81 -23 c3 -5 1 -10 -4 -10 -6 0 -11 5 -11 10 0 6 2
10 4 10 3 0 8 -4 11 -10z m-75 -40 c0 -5 -5 -10 -11 -10 -5 0 -7 5 -4 10 3 6
8 10 11 10 2 0 4 -4 4 -10z"/>
<path d="M3425 3060 c-33 -16 -56 -30 -50 -30 18 0 125 45 125 52 0 13 -12 9
-75 -22z"/>
<path d="M2690 3062 c0 -9 85 -52 103 -52 14 0 -45 37 -80 51 -13 5 -23 5 -23
1z"/>
<path d="M2356 3020 c4 -14 13 -38 20 -55 11 -24 13 -25 8 -5 -4 14 -13 39
-20 55 -11 24 -13 25 -8 5z"/>
<path d="M2390 2921 c0 -6 4 -13 10 -16 6 -3 7 1 4 9 -7 18 -14 21 -14 7z"/>
<path d="M2460 2846 c0 -2 8 -10 18 -17 15 -13 16 -12 3 4 -13 16 -21 21 -21
13z"/>
<path d="M2502 2814 c4 -5 28 -25 54 -44 26 -18 45 -29 42 -24 -4 5 -28 25
-54 44 -26 18 -45 29 -42 24z"/>
<path d="M2035 3696 c-17 -25 -35 -81 -35 -106 0 -8 9 3 19 25 l18 40 6 -40
c4 -22 7 -57 7 -78 0 -67 83 -189 142 -210 28 -10 32 12 5 33 -14 11 -37 41
-52 66 -29 49 -29 92 0 130 13 16 16 17 25 4 20 -30 9 2 -21 63 -51 102 -82
122 -114 73z"/>
<path d="M3536 2395 c-9 -26 -7 -32 5 -12 6 10 9 21 6 23 -2 3 -7 -2 -11 -11z"/>
<path d="M3432 2112 c-59 -179 -97 -320 -88 -329 2 -3 14 41 27 96 12 55 26
98 30 96 4 -3 5 5 2 17 -4 19 -3 20 7 8 10 -13 11 -11 7 7 -3 12 -2 23 2 25 8
3 84 259 78 264 -1 1 -30 -81 -65 -184z"/>
<path d="M2720 2109 c1 -23 130 -382 136 -376 2 1 -26 86 -62 187 -58 163 -74
205 -74 189z"/>
<path d="M1900 1830 c-13 -8 -13 -10 2 -10 9 0 20 5 23 10 8 13 -5 13 -25 0z"/>
<path d="M1703 1690 c-18 -9 -30 -20 -27 -23 7 -7 64 22 64 34 0 5 -1 8 -2 8
-2 -1 -18 -9 -35 -19z"/>
<path d="M1316 1556 c-20 -9 -25 -15 -15 -19 10 -4 9 -6 -3 -6 -10 -1 -18 -5
-18 -11 0 -13 1 -13 41 5 23 9 28 14 15 15 -20 0 -20 0 0 15 23 17 18 18 -20
1z"/>
<path d="M1245 1530 c-16 -7 -17 -9 -3 -9 9 -1 20 4 23 9 7 11 7 11 -20 0z"/>
<path d="M1158 1483 c7 -3 16 -2 19 1 4 3 -2 6 -13 5 -11 0 -14 -3 -6 -6z"/>
<path d="M4210 1850 c8 -5 20 -10 25 -10 6 0 3 5 -5 10 -8 5 -19 10 -25 10 -5
0 -3 -5 5 -10z"/>
<path d="M4380 1770 c0 -5 4 -10 9 -10 5 0 18 -3 28 -6 16 -6 16 -5 -2 9 -23
19 -35 21 -35 7z"/>
<path d="M4755 1591 c33 -16 72 -32 88 -36 15 -4 27 -10 27 -14 0 -4 16 -15
35 -24 40 -19 61 -22 31 -6 -15 9 -16 13 -5 20 10 6 11 9 2 10 -17 2 -21 3
-63 20 -19 7 -38 12 -42 11 -5 -1 -8 3 -8 9 0 5 -4 7 -10 4 -5 -3 -27 3 -49
15 -22 11 -46 20 -53 20 -7 0 14 -13 47 -29z"/>
</g>
</svg>
